Coordinates
version=1
nRows=7
nColumns=38
inDegrees=yes

Units are S.I. units (second, meters, Newtons, ...)
Angles are in degrees.

endheader
time	pelvis_tilt	pelvis_list	pelvis_rotation	pelvis_tx	pelvis_ty	pelvis_tz	hip_flexion_r	hip_adduction_r	hip_rotation_r	knee_angle_r	ankle_angle_r	subtalar_angle_r	mtp_angle_r	hip_flexion_l	hip_adduction_l	hip_rotation_l	knee_angle_l	ankle_angle_l	subtalar_angle_l	mtp_angle_l	lumbar_extension	lumbar_bending	lumbar_rotation	arm_flex_r	arm_add_r	arm_rot_r	elbow_flex_r	pro_sup_r	wrist_flex_r	wrist_dev_r	arm_flex_l	arm_add_l	arm_rot_l	elbow_flex_l	pro_sup_l	wrist_flex_l	wrist_dev_l
      2.09000000	     -2.53894779	      2.51298977	     -2.67272012	      1.03529348	      0.89423366	     -0.17415690	     18.85454371	      1.11456738	      0.08516263	    -59.24172779	      8.23241244	     -1.82426867	      0.00000000	     14.62370168	      7.40046069	      5.08625782	    -20.70443411	      7.72337132	     -3.44567537	      0.00000000	     -6.39580921	     -5.37055343	      5.20787037	      4.53988843	     -6.00196391	     40.05428709	     35.85387447	     44.07374439	      0.00000000	      0.00000000	     -4.19985188	     -5.41825995	     27.60586509	     27.30481323	     44.07374439	      0.00000000	      0.00000000
      2.10000000	     -2.52536181	      2.38386416	     -2.30825739	      1.04669528	      0.89597866	     -0.17425091	     20.22752733	      1.09622622	     -0.69480673	    -58.35774310	      7.95870080	     -4.94245826	      0.00000000	     13.25870201	      7.39613507	      5.85988279	    -19.70484092	      7.75592142	     -3.75633219	      0.00000000	     -6.50055886	     -5.20590034	      4.72604108	      4.25153708	     -5.94361538	     40.01533351	     35.41676069	     44.08771920	      0.00000000	      0.00000000	     -3.46247403	     -5.56850001	     27.90130961	     27.76742259	     44.08771920	      0.00000000	      0.00000000
      2.11000000	     -2.68837392	      2.23974134	     -1.89286416	      1.05785807	      0.89714169	     -0.17450445	     21.70690873	      0.91718386	     -1.31223371	    -57.22811211	      8.55396276	     -5.79260941	      0.00000000	     12.28338326	      7.31594476	      6.20011126	    -19.01418607	      7.98489382	     -3.63210365	      0.00000000	     -6.44147116	     -4.99686829	      4.26588629	      4.02410648	     -5.99446904	     40.00677219	     35.25558654	     44.09112811	      0.00000000	      0.00000000	     -2.66958524	     -5.58196393	     27.95306625	     28.06341454	     44.09112811	      0.00000000	      0.00000000
      2.12000000	     -2.66430373	      1.93422156	     -1.45096908	      1.06905559	      0.89835483	     -0.17459896	     22.58329195	      1.34029241	     -1.37559987	    -55.32865004	      8.13044001	     -8.29034594	      0.00000000	     11.15748279	      7.18108182	      7.31235992	    -18.50801109	      8.20059825	     -4.30028904	      0.00000000	     -6.57637937	     -4.63347864	      3.74341090	      3.75329806	     -5.80491437	     39.71056185	     34.59487023	     44.11215148	      0.00000000	      0.00000000	     -1.94118377	     -5.80233485	     28.44263064	     28.88205816	     44.11215148	      0.00000000	      0.00000000
      2.13000000	     -2.66325224	      1.63197259	     -1.00181015	      1.08012176	      0.89912800	     -0.17476850	     23.64623430	      1.47057195	     -1.71264172	    -53.49501884	      7.90903934	     -9.34587963	      0.00000000	     10.06045058	      6.99236909	      8.26277349	    -17.99309907	      8.58884888	     -4.63469150	      0.00000000	     -6.72433894	     -4.26391597	      3.27232637	      3.49985870	     -5.80828730	     39.54497139	     34.21109320	     44.12594273	      0.00000000	      0.00000000	     -1.03200872	     -5.97122429	     28.70110441	     29.57279044	     44.12594273	      0.00000000	      0.00000000
      2.14000000	     -2.73713843	      1.36464494	     -0.64460283	      1.09099321	      0.89933298	     -0.17488756	     24.83614077	      1.59980180	     -1.77214338	    -51.57560140	      7.72439527	     -9.84180540	      0.00000000	      9.14257386	      6.88932532	      9.35094199	    -17.61443225	      8.87933897	     -5.60893304	      0.00000000	     -6.78710691	     -3.93220411	      2.87688911	      3.37842305	     -5.70641129	     39.11196678	     33.55730051	     44.17177775	      0.00000000	      0.00000000	     -0.35478162	     -6.34884695	     29.37883027	     30.97062378	     44.17177775	      0.00000000	      0.00000000
      2.15000000	     -2.73876583	      1.03335275	     -0.22855453	      1.10194287	      0.89936595	     -0.17498278	     25.67136087	      1.87270933	     -1.70005301	    -49.18700672	      7.27980078	    -10.68574940	      0.00000000	      8.26572041	      6.66382107	     10.21186171	    -17.51623380	      9.44877315	     -5.98884542	      0.00000000	     -6.92887599	     -3.52745863	      2.45242518	      3.16166191	     -5.78303138	     38.96696549	     33.33748517	     44.19532316	      0.00000000	      0.00000000	      0.49690872	     -6.48439896	     29.50542644	     31.64795531	     44.19532316	      0.00000000	      0.00000000
